<svg width="698" height="889" viewBox="0 0 698 889" fill="none" xmlns="http://www.w3.org/2000/svg">
<g clip-path="url(#clip0_291_80)">
<path opacity="0.1" d="M656.721 587.243C619.545 614.228 605.035 665.717 600.417 709.096C598.865 723.614 597.556 739.078 589.025 752.59C578.623 769.09 560.199 777.874 543.911 780.546C514.221 785.424 486.829 773.811 472.625 750.292C460.361 730.004 457.719 702.208 444.8 682.457C423.202 649.386 377.813 645.611 335.1 650.904C304.888 654.654 270.763 661.08 251.533 641.732C237.986 628.127 235.386 604.223 238.84 580.778C240.509 569.454 243.443 557.544 241.217 547.479C239.899 541.505 236.821 536.615 233.377 532.239C201.885 492.251 139.7 489.715 110.874 447.155C91.3838 418.424 90.5393 375.126 100.709 333.348C110.879 291.569 131.109 250.63 152.087 210.779C166.995 182.459 183.978 152.545 209.359 134.912C236.199 116.225 267.531 115.789 290.063 127.698C312.595 139.607 327.521 162.336 338.388 187.026C351.992 217.899 361.141 253.973 386.843 272.604C404.353 285.305 427.586 288.311 449.325 293.509C485.658 302.191 518.939 317.491 551.799 333.155C583.247 348.151 614.754 363.722 640.531 386.857C658.809 403.25 668.963 426.018 684.783 444.567C695.096 456.663 709.35 463.443 717.891 477.473C728.442 494.738 733.38 520.705 717.496 544.512C702.426 567.149 676.449 572.918 656.721 587.243Z" fill="#6085FF"/>
<path d="M558.41 197.952L513.447 195.227L487.431 193.37V193.324H487.109H486.746V193.376L346.849 204.569H335.25L333.887 252.864L356.408 260.805L370.055 330.268L307.956 453.306L270.433 481.749V508.869L292.953 530.702L294.316 630.597L301.143 631.914V630.854L304.573 631.512V631.908L437.847 676.732L443.449 680.532L455.167 673.23L549.569 618.68L558.41 197.952ZM415.129 508.277L451.639 477.331L415.129 508.277ZM288.503 521.116L298.378 530.709V531.302L288.503 521.116Z" fill="url(#paint0_linear_291_80)"/>
<path d="M306.455 532.73L439.434 566.31L419.684 543.923L408.493 530.097L291.973 507.052L286.706 511.661L306.455 532.73Z" fill="#22232F"/>
<path d="M286.706 511.661L417.709 541.948L418.367 510.344L380.844 495.859L305.796 483.349H284.072L286.706 511.661Z" fill="#D6D6E3"/>
<path d="M381.502 332.572L515.139 341.131V316.112L505.923 260.146L501.315 256.196L367.678 260.146L381.502 332.572Z" fill="#D6D6E3"/>
<path d="M349.904 206.815H343.321L342.004 254.879L363.728 262.78L376.894 331.914L316.988 454.379L280.781 482.691V509.686L302.505 531.414L303.822 630.834L310.405 632.151L309.089 533.389L287.364 510.344L286.706 482.691L321.596 455.037L382.819 332.572L369.653 262.78L347.929 253.562L349.904 206.815Z" fill="#D6D6E3"/>
<path d="M344.637 206.815H338.054L336.737 254.879L358.462 262.78L371.628 331.914L311.722 454.379L275.515 482.691V509.686L297.239 531.414L298.555 630.834L305.139 632.151L303.822 533.389L282.098 510.344L281.439 482.691L317.646 455.037L377.553 332.572L364.386 262.78L342.662 253.562L344.637 206.815Z" fill="#22232F"/>
<path d="M344.308 249.941L347.599 254.55L366.032 263.109L512.177 259.159L498.023 254.879L482.882 248.295L484.857 243.027L344.308 249.941Z" fill="#A8A8A8"/>
<path d="M319.621 457.013L453.258 478.74L480.249 421.458L517.114 339.156L381.502 332.572L319.621 457.013Z" fill="#6085FF"/>
<g opacity="0.1">
<path opacity="0.1" d="M388.743 356.275L478.932 363.517L432.192 455.696L344.637 442.527L388.743 356.275Z" fill="white"/>
</g>
<g opacity="0.1">
<path opacity="0.1" d="M394.964 362.971L398.947 363.294L396.887 367.356L393.022 366.777L394.964 362.971Z" fill="white"/>
</g>
<g opacity="0.1">
<path opacity="0.1" d="M395.623 401.159L399.605 401.482L397.545 405.544L393.681 404.965L395.623 401.159Z" fill="white"/>
</g>
<g opacity="0.1">
<path opacity="0.1" d="M417.347 367.58L421.33 367.903L419.27 371.965L415.405 371.386L417.347 367.58Z" fill="white"/>
</g>
<g opacity="0.1">
<path opacity="0.1" d="M458.821 369.555L462.804 369.878L460.743 373.94L456.879 373.361L458.821 369.555Z" fill="white"/>
</g>
<g opacity="0.1">
<path opacity="0.1" d="M402.865 374.823L406.848 375.145L404.787 379.208L400.923 378.628L402.865 374.823Z" fill="white"/>
</g>
<g opacity="0.1">
<path opacity="0.1" d="M417.347 414.986L421.33 415.308L419.27 419.371L415.405 418.791L417.347 414.986Z" fill="white"/>
</g>
<g opacity="0.1">
<path opacity="0.1" d="M381.798 391.941L385.781 392.264L383.721 396.326L379.856 395.747L381.798 391.941Z" fill="white"/>
</g>
<g opacity="0.1">
<path opacity="0.1" d="M442.363 367.58L446.346 367.903L444.285 371.965L440.421 371.386L442.363 367.58Z" fill="white"/>
</g>
<g opacity="0.1">
<path opacity="0.1" d="M410.764 389.966L414.747 390.289L412.687 394.351L408.822 393.772L410.764 389.966Z" fill="white"/>
</g>
<g opacity="0.1">
<path opacity="0.1" d="M406.156 364.946L410.139 365.269L408.078 369.331L404.214 368.752L406.156 364.946Z" fill="white"/>
</g>
<g opacity="0.1">
<path opacity="0.1" d="M426.564 387.991L430.547 388.313L428.486 392.376L424.622 391.796L426.564 387.991Z" fill="white"/>
</g>
<g opacity="0.1">
<path opacity="0.1" d="M431.172 367.58L435.154 367.903L433.094 371.965L429.229 371.386L431.172 367.58Z" fill="white"/>
</g>
<g opacity="0.1">
<path opacity="0.1" d="M389.698 376.798L393.681 377.12L391.62 381.183L387.756 380.603L389.698 376.798Z" fill="white"/>
</g>
<path d="M284.072 483.349L414.417 509.686L450.322 478.266L319.95 456.025L284.072 483.349Z" fill="#D6D6E3"/>
<path d="M308.43 529.438V632.151L437.458 676.923L439.433 570.26L434.167 560.338L410.468 554.458L308.43 529.438Z" fill="#22232F"/>
<path d="M325.217 468.864C328.307 468.864 330.812 467.39 330.812 465.572C330.812 463.754 328.307 462.28 325.217 462.28C322.126 462.28 319.621 463.754 319.621 465.572C319.621 467.39 322.126 468.864 325.217 468.864Z" fill="#011640"/>
<path d="M329.825 476.107C332.915 476.107 335.421 474.633 335.421 472.815C335.421 470.996 332.915 469.522 329.825 469.522C326.735 469.522 324.229 470.996 324.229 472.815C324.229 474.633 326.735 476.107 329.825 476.107Z" fill="#FA595F"/>
<path d="M314.025 474.131C317.116 474.131 319.621 472.657 319.621 470.839C319.621 469.021 317.116 467.547 314.025 467.547C310.935 467.547 308.43 469.021 308.43 470.839C308.43 472.657 310.935 474.131 314.025 474.131Z" fill="#FFD037"/>
<path d="M385.123 480.716C388.213 480.716 390.719 479.242 390.719 477.423C390.719 475.605 388.213 474.131 385.123 474.131C382.033 474.131 379.527 475.605 379.527 477.423C379.527 479.242 382.033 480.716 385.123 480.716Z" fill="#011640"/>
<path d="M373.932 486.641C377.022 486.641 379.527 485.167 379.527 483.349C379.527 481.531 377.022 480.057 373.932 480.057C370.841 480.057 368.336 481.531 368.336 483.349C368.336 485.167 370.841 486.641 373.932 486.641Z" fill="#FFD037"/>
<path d="M352.866 477.423C357.41 477.423 361.094 475.655 361.094 473.473C361.094 471.291 357.41 469.522 352.866 469.522C348.321 469.522 344.637 471.291 344.637 473.473C344.637 475.655 348.321 477.423 352.866 477.423Z" fill="#A8A8A8"/>
<path d="M391.048 487.958C394.138 487.958 396.643 486.484 396.643 484.666C396.643 482.848 394.138 481.374 391.048 481.374C387.957 481.374 385.452 482.848 385.452 484.666C385.452 486.484 387.957 487.958 391.048 487.958Z" fill="#FA595F"/>
<path d="M355.17 472.821H351.22L347.823 459.706C347.68 459.154 347.666 458.577 347.781 458.018C347.895 457.46 348.137 456.936 348.485 456.485C348.834 456.034 349.282 455.67 349.793 455.419C350.305 455.168 350.867 455.037 351.437 455.037C352.427 455.037 353.377 455.431 354.077 456.131C354.777 456.831 355.17 457.78 355.17 458.771V472.821Z" fill="#A8A8A8"/>
<path d="M412.114 487.958C416.658 487.958 420.342 486.189 420.342 484.008C420.342 481.826 416.658 480.057 412.114 480.057C407.569 480.057 403.885 481.826 403.885 484.008C403.885 486.189 407.569 487.958 412.114 487.958Z" fill="#A8A8A8"/>
<path d="M414.418 483.356H410.468L407.071 470.24C406.928 469.688 406.914 469.111 407.029 468.553C407.144 467.995 407.385 467.47 407.734 467.02C408.082 466.569 408.53 466.204 409.041 465.953C409.553 465.702 410.115 465.572 410.685 465.572C411.675 465.572 412.625 465.965 413.325 466.665C414.025 467.366 414.418 468.315 414.418 469.305V483.356Z" fill="#A8A8A8"/>
<path d="M349.246 206.815L484.857 195.622L481.566 245.003L345.954 251.587L349.246 206.815Z" fill="#22232F"/>
<path d="M484.199 195.622L546.738 200.23L538.18 618.983L442.396 680.544L435.813 675.936L435.484 566.309L414.418 542.606V509.686L451.283 477.423L513.823 338.498L504.935 259.159H509.544L480.249 248.953L484.199 195.622Z" fill="#D6D6E3"/>
<path d="M490.123 196.28L553.321 200.23L544.763 618.983L442.067 680.215V566.31L421.001 542.607V509.686L457.866 477.423L520.406 338.498L509.214 258.829L486.832 248.953L490.123 196.28Z" fill="#22232F"/>
<path d="M378.941 449.967C369.725 469.062 347.04 464.11 347.04 464.11C345.868 463.024 338.534 461.207 332.972 459.949C329.404 459.139 326.566 458.573 326.566 458.573L334.354 447.716L340.193 448.914L348.903 450.705C348.903 450.705 388.191 430.88 378.941 449.967Z" fill="url(#paint1_linear_291_80)"/>
<g opacity="0.08">
<path opacity="0.08" d="M378.941 449.967C369.725 469.062 347.04 464.11 347.04 464.11C345.868 463.024 338.534 461.207 332.972 459.949C329.404 459.139 326.566 458.573 326.566 458.573L334.354 447.716L340.193 448.914L348.903 450.705C348.903 450.705 388.191 430.88 378.941 449.967Z" fill="url(#paint2_linear_291_80)"/>
</g>
<g opacity="0.1">
<path opacity="0.1" d="M340.2 448.914L332.959 459.956C329.391 459.146 326.554 458.58 326.554 458.58L334.342 447.722L340.2 448.914Z" fill="url(#paint3_linear_291_80)"/>
</g>
<path d="M259.241 409.449C259.241 409.449 293.19 462.51 329.542 462.385L339.417 447.242C339.417 447.242 306.146 423.473 301.722 411.082C300.09 406.473 296.719 400.158 293.125 393.963C282.085 374.981 252.31 387.379 258.853 408.237C258.98 408.65 259.11 409.054 259.241 409.449Z" fill="url(#paint4_linear_291_80)"/>
<g opacity="0.05">
<path opacity="0.05" d="M259.241 409.449C259.241 409.449 293.19 462.51 329.542 462.385L339.417 447.242C339.417 447.242 306.146 423.473 301.722 411.082C300.09 406.473 296.719 400.158 293.125 393.963C282.085 374.981 252.31 387.379 258.853 408.237C258.98 408.65 259.11 409.054 259.241 409.449Z" fill="url(#paint5_linear_291_80)"/>
</g>
<path d="M237.142 717.87L238.735 736.306C238.735 736.306 290.879 727.641 290.425 710.318C289.971 692.995 237.142 717.87 237.142 717.87Z" fill="url(#paint6_linear_291_80)"/>
<g opacity="0.1">
<path opacity="0.1" d="M237.142 717.87L238.735 736.306C238.735 736.306 290.879 727.641 290.425 710.318C289.971 692.995 237.142 717.87 237.142 717.87Z" fill="url(#paint7_linear_291_80)"/>
</g>
<path d="M298.167 723.644L297.259 739.637C297.259 739.637 369.673 734.304 366.934 719.226C364.196 704.149 325.948 712.537 325.948 712.537L298.167 723.644Z" fill="url(#paint8_linear_291_80)"/>
<path d="M299.075 567.271C299.075 567.271 294.796 579.122 289.332 592.699C284.105 605.696 277.799 620.306 273.118 627.687C263.553 642.791 262.19 689.44 262.19 689.44C260.367 696.992 269.478 711.655 269.478 711.655C251.262 730.749 234.41 719.654 234.41 719.654C237.596 713.88 232.132 697.44 232.132 697.44C232.132 697.44 239.419 621.472 243.981 617.916C248.543 614.361 252.177 596.59 252.177 596.59L248.102 536.2L247.168 522.373L286.33 505.051L289.155 518.825L291.952 532.46L299.075 567.271Z" fill="url(#paint9_linear_291_80)"/>
<g opacity="0.1">
<path opacity="0.1" d="M299.075 567.271C299.075 567.271 294.796 579.122 289.332 592.699C284.105 605.696 277.799 620.306 273.118 627.687C263.553 642.791 262.19 689.44 262.19 689.44C260.367 696.992 269.478 711.655 269.478 711.655C251.262 730.749 234.41 719.654 234.41 719.654C237.596 713.88 232.132 697.44 232.132 697.44C232.132 697.44 239.419 621.472 243.981 617.916C248.543 614.361 252.177 596.59 252.177 596.59L248.102 536.2L247.168 522.373L286.33 505.051L289.155 518.825L291.952 532.46L299.075 567.271Z" fill="url(#paint10_linear_291_80)"/>
</g>
<path d="M333.229 714.321C325.033 728.537 296.364 726.759 296.364 726.759V684.996C296.364 684.996 288.168 638.347 292.723 627.713C297.279 617.08 290.9 597.505 290.9 597.505L289.333 592.705L270.762 535.423L265.377 518.818H326.856C326.856 518.818 326.856 521.662 326.856 526.285C326.935 544.062 327.304 588.116 329.114 598.342C331.392 611.227 325.013 619.668 325.013 619.668C325.013 619.668 328.654 672.091 325.467 688.525C322.281 704.959 333.229 714.321 333.229 714.321Z" fill="url(#paint11_linear_291_80)"/>
<path d="M282.683 323.815C282.683 323.815 273.118 349.579 253.994 358.909C234.87 368.238 285.415 370.905 285.415 370.905C285.415 370.905 293.611 351.357 312.281 337.583L282.683 323.815Z" fill="url(#paint12_linear_291_80)"/>
<g opacity="0.1">
<path opacity="0.1" d="M326.876 526.311C319.253 527.779 305.764 530.294 291.946 532.48C284.705 533.626 277.384 534.679 270.762 535.443C260.571 536.622 252.046 537.115 248.096 536.194L247.161 522.367L286.324 505.044L289.148 518.818H326.856C326.856 518.818 326.856 521.689 326.876 526.311Z" fill="url(#paint13_linear_291_80)"/>
</g>
<path d="M333.229 523.73C333.229 523.73 256.266 539.282 246.707 534.396C237.148 529.511 234.857 517.073 237.596 503.299C240.334 489.525 237.596 455.32 232.586 411.779C230.065 389.854 235.621 375.139 241.77 365.934C244.468 361.966 248.102 358.724 252.35 356.493C256.598 354.262 261.329 353.111 266.127 353.141C274.451 353.107 282.542 355.892 289.082 361.042C291.005 362.576 292.947 363.834 294.533 364.262C295.784 364.597 297.667 365.927 299.8 367.738C309.297 375.919 315.259 387.46 316.435 399.941C317.225 408.217 318.061 418.64 318.469 429.175C318.888 438.171 318.796 447.184 318.193 456.17C317.77 462.749 318.083 469.354 319.128 475.863C322.676 499.869 333.229 523.73 333.229 523.73Z" fill="url(#paint14_linear_291_80)"/>
<g opacity="0.1">
<path opacity="0.1" d="M319.135 475.896C291.202 458.896 276.759 411.332 276.759 411.332C276.759 410.917 276.759 410.509 276.713 410.107C276.088 388.294 308.2 384.093 313.651 405.261C315.422 412.155 316.942 419.147 317.258 423.98C317.431 425.758 317.84 427.505 318.476 429.175C318.896 438.171 318.803 447.184 318.2 456.17C317.774 462.759 318.088 469.376 319.135 475.896Z" fill="url(#paint15_linear_291_80)"/>
</g>
<g opacity="0.1">
<path opacity="0.1" d="M277.897 339.143C282.44 346.656 286.034 354.221 295.257 355.505C299.785 349.758 305.048 344.631 310.912 340.256L281.288 326.482C281.288 326.482 283.026 331.183 277.897 339.143Z" fill="url(#paint16_linear_291_80)"/>
</g>
<path d="M300.899 353.128C317.5 353.128 330.958 340.001 330.958 323.809C330.958 307.616 317.5 294.489 300.899 294.489C284.298 294.489 270.841 307.616 270.841 323.809C270.841 340.001 284.298 353.128 300.899 353.128Z" fill="url(#paint17_linear_291_80)"/>
<g opacity="0.1">
<path opacity="0.1" d="M330.609 333.007C331.853 333.06 333.083 332.734 334.137 332.072C335.579 331.025 336.04 329.148 336.369 327.423C337.153 323.348 337.765 319.055 336.369 315.131C335.467 312.536 333.736 310.291 332.525 307.829C329.826 302.449 329.345 295.977 325.494 291.309C323.091 288.386 314.645 291.309 311.116 289.834C303.533 286.648 300.241 280.182 291.979 280.188C288.952 280.115 285.93 280.492 283.013 281.308C279.32 282.447 276.055 284.6 273.02 286.964C267.754 291.059 262.592 296.682 263.06 303.253C263.363 307.447 265.923 311.154 267.431 315.065C269.959 321.649 269.498 329.049 267.675 335.871C266.898 338.774 266.009 342.244 268.07 344.463C269.386 345.852 271.473 346.247 273.336 345.944C275.194 345.533 276.973 344.821 278.602 343.838C281.565 342.264 284.567 340.664 286.963 338.353C288.55 336.825 289.827 335.021 291.334 333.421C294.286 330.362 297.628 327.705 301.275 325.52C304.191 323.769 307.199 324.862 310.261 326.001C316.988 328.47 323.21 333.138 330.609 333.007Z" fill="url(#paint18_linear_291_80)"/>
</g>
<path d="M330.155 332.559C331.398 332.612 332.629 332.286 333.683 331.624C335.125 330.577 335.586 328.701 335.915 326.976C336.698 322.9 337.311 318.607 335.915 314.683C335.013 312.089 333.282 309.844 332.07 307.381C329.371 302.002 328.891 295.53 325.04 290.861C322.637 287.938 314.645 291.309 311.116 289.828C303.533 286.641 299.787 279.734 291.525 279.741C288.498 279.667 285.476 280.044 282.559 280.86C278.866 281.999 275.601 284.152 272.566 286.516C267.299 290.611 262.138 296.234 262.606 302.805C262.909 306.999 265.469 310.706 266.977 314.617C269.505 321.201 269.044 328.602 267.22 335.423C266.444 338.327 265.555 341.796 267.615 344.015C268.932 345.405 271.019 345.8 272.882 345.497C274.74 345.085 276.519 344.373 278.148 343.39C281.111 341.816 284.113 340.216 286.509 337.905C288.095 336.378 289.373 334.574 290.88 332.974C293.832 329.914 297.174 327.258 300.821 325.073C303.737 323.321 306.745 324.414 309.806 325.553C316.534 328.022 322.755 332.691 330.155 332.559Z" fill="url(#paint19_linear_291_80)"/>
<g opacity="0.05">
<path opacity="0.05" d="M319.134 475.896C318.09 469.387 317.777 462.781 318.2 456.203C318.803 447.217 318.895 438.204 318.476 429.208C318.068 418.673 317.238 408.25 316.442 399.974C315.261 387.48 309.284 375.93 299.767 367.751C297.654 365.94 295.771 364.604 294.5 364.275C292.914 363.853 290.972 362.589 289.05 361.055C282.585 355.9 290.801 365.94 292.914 367.751C302.431 375.93 308.408 387.48 309.589 399.974C310.379 408.25 311.215 418.673 311.623 429.208C312.042 438.204 311.95 447.217 311.347 456.203C310.924 462.781 311.237 469.387 312.281 475.896C315.823 499.882 326.376 523.73 326.376 523.73C326.376 523.73 274.856 534.139 250.881 535.245C269.669 536.562 333.202 523.73 333.202 523.73C333.202 523.73 322.676 499.869 319.134 475.896Z" fill="url(#paint20_linear_291_80)"/>
</g>
<path d="M381.956 480.195C367.836 496.188 347.349 485.529 347.349 485.529C346.513 484.172 339.943 480.518 334.933 477.858C331.714 476.153 329.134 474.862 329.134 474.862L339.607 466.421L344.907 469.095L352.807 473.085C352.807 473.085 396.09 464.203 381.956 480.195Z" fill="url(#paint21_linear_291_80)"/>
<g opacity="0.1">
<path opacity="0.1" d="M344.907 469.095L334.933 477.858C331.714 476.153 329.134 474.862 329.134 474.862L339.607 466.421L344.907 469.095Z" fill="url(#paint22_linear_291_80)"/>
</g>
<path d="M277.674 410.002C277.674 410.002 295.89 469.977 330.958 479.306L344.618 467.31C344.618 467.31 319.069 435.746 318.173 422.65C317.851 417.811 316.337 410.798 314.566 403.931C309.115 382.77 277.003 386.964 277.628 408.777C277.641 409.181 277.657 409.589 277.674 410.002Z" fill="url(#paint23_linear_291_80)"/>
<path opacity="0.05" d="M242.382 468.423C242.382 468.423 254.231 459.093 265.153 466.204C276.074 473.315 292.018 472.426 294.296 472.867" fill="url(#paint24_linear_291_80)"/>
<path d="M375.532 448.993C366.744 467.613 345.171 462.82 345.171 462.82C344.052 461.76 337.074 459.989 331.787 458.764C328.39 457.974 325.691 457.447 325.691 457.447L333.104 446.853L338.66 448.025L346.948 449.77C346.948 449.77 384.32 430.366 375.532 448.993Z" fill="#F7C4A7"/>
<path opacity="0.08" d="M375.532 448.993C366.744 467.613 345.171 462.82 345.171 462.82C344.052 461.76 337.074 459.989 331.787 458.764C328.39 457.974 325.691 457.447 325.691 457.447L333.104 446.853L338.66 448.025L346.948 449.77C346.948 449.77 384.32 430.366 375.532 448.993Z" fill="black"/>
<path opacity="0.1" d="M338.66 447.959L331.787 458.731C328.39 457.941 325.691 457.414 325.691 457.414L333.104 446.82L338.66 447.959Z" fill="black"/>
<path d="M261.618 409.455C261.618 409.455 293.927 461.233 328.515 461.101L337.922 446.353C337.922 446.353 306.264 423.163 302.051 411.068C300.497 406.604 297.291 400.415 293.875 394.384C283.342 375.869 255.034 387.965 261.255 408.316C261.374 408.689 261.495 409.069 261.618 409.455Z" fill="#011640"/>
<path opacity="0.05" d="M261.618 409.455C261.618 409.455 293.927 461.233 328.515 461.101L337.922 446.353C337.922 446.353 306.264 423.163 302.051 411.068C300.497 406.604 297.291 400.415 293.875 394.384C283.342 375.869 255.034 387.965 261.255 408.316C261.374 408.689 261.495 409.069 261.618 409.455Z" fill="black"/>
<path d="M240.585 710.384L242.099 728.372C242.099 728.372 291.722 719.918 291.288 703.016C290.853 686.115 240.585 710.384 240.585 710.384Z" fill="#22232F"/>
<path opacity="0.1" d="M240.585 710.384L242.099 728.372C242.099 728.372 291.722 719.918 291.288 703.016C290.853 686.115 240.585 710.384 240.585 710.384Z" fill="black"/>
<path d="M298.661 716.02L297.792 731.631C297.792 731.631 366.704 726.43 364.103 711.694C361.503 696.959 325.099 705.189 325.099 705.189L298.661 716.02Z" fill="#22232F"/>
<path d="M299.523 563.439C299.523 563.439 295.448 574.987 290.248 588.248C285.271 600.929 279.267 615.184 274.817 622.387C265.745 637.129 264.429 682.638 264.429 682.638C262.697 690.006 271.361 704.313 271.361 704.313C254.027 722.953 237.991 712.116 237.991 712.116C241.026 706.48 235.825 690.441 235.825 690.441C235.825 690.441 242.757 616.316 247.095 612.853C251.434 609.39 254.89 592.047 254.89 592.047L251.012 533.125L250.124 519.661L287.397 502.753L290.103 516.191L292.736 529.498L299.523 563.439Z" fill="#6085FF"/>
<path opacity="0.1" d="M299.523 563.439C299.523 563.439 295.448 574.987 290.248 588.248C285.271 600.929 279.267 615.184 274.817 622.387C265.745 637.129 264.429 682.638 264.429 682.638C262.697 690.006 271.361 704.313 271.361 704.313C254.027 722.953 237.991 712.116 237.991 712.116C241.026 706.48 235.825 690.441 235.825 690.441C235.825 690.441 242.757 616.316 247.095 612.853C251.434 609.39 254.89 592.047 254.89 592.047L251.012 533.125L250.124 519.661L287.397 502.753L290.103 516.191L292.736 529.498L299.523 563.439Z" fill="black"/>
<path d="M332.03 706.914C324.229 720.787 296.923 719.049 296.923 719.049V678.299C296.923 678.299 289.122 632.783 293.453 622.38C297.785 611.977 291.722 592.903 291.722 592.903L290.247 588.241L272.572 532.381L267.45 516.184H325.961C325.961 516.184 325.961 518.956 325.961 523.473C326.033 540.809 326.389 583.804 328.113 593.779C330.279 606.348 324.21 614.584 324.21 614.584C324.21 614.584 327.679 665.73 324.644 681.743C321.609 697.756 332.03 706.914 332.03 706.914Z" fill="#6085FF"/>
<path d="M283.921 325.902C283.921 325.902 274.816 351.041 256.614 360.14C238.412 369.239 286.521 371.846 286.521 371.846C286.521 371.846 294.322 352.752 312.09 339.334L283.921 325.902Z" fill="#F7C4A7"/>
<path opacity="0.1" d="M325.981 523.48C318.726 524.889 305.902 527.364 292.736 529.498C285.85 530.617 278.878 531.644 272.572 532.388C262.875 533.534 254.758 534.021 250.999 533.119L250.11 519.654L287.384 502.746L290.103 516.191H325.987C325.987 516.191 325.961 518.963 325.981 523.48Z" fill="black"/>
<path d="M332.031 520.938C332.031 520.938 258.787 536.082 249.69 531.341C240.592 526.601 238.419 514.433 241.02 501.001C243.62 487.57 241.02 454.188 236.253 411.707C233.851 390.315 239.143 375.962 244.989 366.974C247.507 363.126 250.945 359.967 254.991 357.783C259.037 355.599 263.564 354.458 268.162 354.464C276.112 354.436 283.828 357.155 290.004 362.161C291.835 363.656 293.684 364.887 295.192 365.302C296.383 365.624 298.174 366.928 300.182 368.693C309.286 376.766 314.964 388.012 316.054 400.132C316.811 408.204 317.601 418.377 317.989 428.661C318.39 437.438 318.304 446.23 317.732 454.998C317.33 461.415 317.628 467.858 318.621 474.21C321.985 497.69 332.031 520.938 332.031 520.938Z" fill="#011640"/>
<path opacity="0.1" d="M318.614 474.289C292.032 457.704 278.286 411.292 278.286 411.292C278.286 410.891 278.286 410.489 278.24 410.1C277.647 388.82 308.206 384.718 313.394 405.373C315.079 412.102 316.521 418.917 316.823 423.637C316.987 425.371 317.376 427.075 317.982 428.707C318.383 437.484 318.297 446.276 317.725 455.044C317.32 461.472 317.618 467.926 318.614 474.289Z" fill="black"/>
<path opacity="0.1" d="M279.372 340.855C283.691 348.183 287.114 355.57 295.896 356.815C300.188 351.224 305.197 346.221 310.793 341.935L282.624 328.496C282.624 328.496 284.25 333.092 279.372 340.855Z" fill="black"/>
<path d="M301.261 354.51C317.058 354.51 329.864 341.702 329.864 325.902C329.864 310.102 317.058 297.294 301.261 297.294C285.463 297.294 272.657 310.102 272.657 325.902C272.657 341.702 285.463 354.51 301.261 354.51Z" fill="#F7C4A7"/>
<path opacity="0.1" d="M329.535 334.87C330.723 334.918 331.896 334.596 332.892 333.948C334.262 332.928 334.703 331.091 335.012 329.412C335.756 325.461 336.329 321.247 335.012 317.415C334.156 314.88 332.53 312.694 331.352 310.291C328.778 305.024 328.324 298.729 324.664 294.173C322.373 291.322 314.341 294.173 310.977 292.731C303.736 289.624 300.629 283.316 292.768 283.323C289.877 283.248 286.991 283.617 284.21 284.416C280.695 285.522 277.588 287.642 274.704 289.933C269.675 293.93 264.777 299.414 265.225 305.827C265.514 309.923 267.95 313.504 269.385 317.349C271.795 323.789 271.36 330.998 269.616 337.648C268.878 340.48 268.029 343.864 269.991 346.037C271.215 347.386 273.23 347.781 275.027 347.479C276.808 347.078 278.51 346.384 280.063 345.424C282.881 343.89 285.738 342.33 288.015 340.078C289.523 338.583 290.741 336.825 292.176 335.265C294.975 332.288 298.156 329.695 301.636 327.555C304.414 325.85 307.264 326.897 310.194 328.022C316.573 330.445 322.491 335.002 329.535 334.87Z" fill="black"/>
<path d="M329.101 334.435C330.288 334.487 331.461 334.17 332.459 333.527C333.828 332.506 334.269 330.669 334.579 328.99C335.322 325.04 335.895 320.826 334.579 316.994C333.723 314.459 332.097 312.273 330.918 309.87C328.344 304.603 327.89 298.308 324.23 293.752C321.939 290.901 314.355 294.193 310.978 292.744C303.737 289.637 300.195 282.868 292.335 282.868C289.443 282.794 286.557 283.163 283.777 283.961C280.261 285.067 277.154 287.187 274.271 289.479C269.241 293.475 264.344 298.96 264.791 305.373C265.081 309.468 267.517 313.05 268.952 316.895C271.361 323.334 270.927 330.544 269.182 337.194C268.445 340.025 267.596 343.41 269.557 345.582C270.782 346.932 272.796 347.327 274.593 347.024C276.374 346.624 278.076 345.929 279.629 344.97C282.447 343.436 285.304 341.875 287.582 339.624C289.089 338.129 290.307 336.371 291.742 334.811C294.571 331.836 297.783 329.252 301.294 327.127C304.072 325.422 306.923 326.469 309.852 327.594C316.139 329.998 322.057 334.567 329.101 334.435Z" fill="#22232F"/>
<path opacity="0.05" d="M318.614 474.289C317.631 467.942 317.342 461.506 317.752 455.097C318.324 446.329 318.409 437.537 318.008 428.76C317.62 418.475 316.83 408.31 316.073 400.231C314.983 388.111 309.306 376.864 300.201 368.791C298.193 367.02 296.403 365.723 295.211 365.401C293.703 364.986 291.854 363.755 290.024 362.26C283.868 357.23 291.689 367.027 293.703 368.791C302.808 376.864 308.486 388.111 309.575 400.231C310.332 408.303 311.122 418.475 311.511 428.76C311.912 437.537 311.826 446.329 311.254 455.097C310.851 461.514 311.149 467.956 312.143 474.309C315.513 497.709 325.559 520.978 325.559 520.978C325.559 520.978 276.528 531.13 253.718 532.217C271.597 533.534 332.057 520.978 332.057 520.978C332.057 520.978 321.984 497.689 318.614 474.289Z" fill="black"/>
<path d="M378.402 478.483C364.966 494.088 345.486 483.685 345.486 483.685C344.696 482.368 338.442 478.793 333.637 476.205C330.576 474.54 328.12 473.282 328.12 473.282L338.087 465.045L343.13 467.679L350.667 471.557C350.667 471.557 391.838 462.879 378.402 478.483Z" fill="#F7C4A7"/>
<path opacity="0.1" d="M343.142 467.653L333.649 476.212C330.588 474.546 328.133 473.289 328.133 473.289L338.1 465.052L343.142 467.653Z" fill="black"/>
<path d="M279.155 409.995C279.155 409.995 296.488 468.515 329.845 477.614L342.846 465.908C342.846 465.908 318.489 435.114 317.679 422.334C317.37 417.613 315.935 410.792 314.243 404.069C309.055 383.421 278.497 387.517 279.096 408.797C279.118 409.192 279.137 409.591 279.155 409.995Z" fill="#011640"/>
<path opacity="0.05" d="M245.568 466.994C245.568 466.994 256.839 457.888 267.24 464.828C277.641 471.768 292.809 470.899 294.974 471.333" fill="black"/>
</g>
<defs>
<linearGradient id="paint0_linear_291_80" x1="414.418" y1="680.551" x2="414.418" y2="193.324" gradientUnits="userSpaceOnUse">
<stop stop-color="#808080" stop-opacity="0.25"/>
<stop offset="0.54" stop-color="#808080" stop-opacity="0.12"/>
<stop offset="1" stop-color="#808080" stop-opacity="0.1"/>
</linearGradient>
<linearGradient id="paint1_linear_291_80" x1="28469" y1="10812.2" x2="28469" y2="10007.6" gradientUnits="userSpaceOnUse">
<stop stop-color="#808080" stop-opacity="0.25"/>
<stop offset="0.54" stop-color="#808080" stop-opacity="0.12"/>
<stop offset="1" stop-color="#808080" stop-opacity="0.1"/>
</linearGradient>
<linearGradient id="paint2_linear_291_80" x1="28469" y1="10812.2" x2="28469" y2="10007.6" gradientUnits="userSpaceOnUse">
<stop stop-color="#808080" stop-opacity="0.25"/>
<stop offset="0.54" stop-color="#808080" stop-opacity="0.12"/>
<stop offset="1" stop-color="#808080" stop-opacity="0.1"/>
</linearGradient>
<linearGradient id="paint3_linear_291_80" x1="7050.99" y1="5871.63" x2="7050.99" y2="5644.33" gradientUnits="userSpaceOnUse">
<stop stop-color="#808080" stop-opacity="0.25"/>
<stop offset="0.54" stop-color="#808080" stop-opacity="0.12"/>
<stop offset="1" stop-color="#808080" stop-opacity="0.1"/>
</linearGradient>
<linearGradient id="paint4_linear_291_80" x1="36117.3" y1="35168.3" x2="36117.3" y2="25979.5" gradientUnits="userSpaceOnUse">
<stop stop-color="#808080" stop-opacity="0.25"/>
<stop offset="0.54" stop-color="#808080" stop-opacity="0.12"/>
<stop offset="1" stop-color="#808080" stop-opacity="0.1"/>
</linearGradient>
<linearGradient id="paint5_linear_291_80" x1="36117.3" y1="35168.3" x2="36117.3" y2="25979.5" gradientUnits="userSpaceOnUse">
<stop stop-color="#808080" stop-opacity="0.25"/>
<stop offset="0.54" stop-color="#808080" stop-opacity="0.12"/>
<stop offset="1" stop-color="#808080" stop-opacity="0.1"/>
</linearGradient>
<linearGradient id="paint6_linear_291_80" x1="20860.1" y1="28428.1" x2="20860.1" y2="26860.9" gradientUnits="userSpaceOnUse">
<stop stop-color="#808080" stop-opacity="0.25"/>
<stop offset="0.54" stop-color="#808080" stop-opacity="0.12"/>
<stop offset="1" stop-color="#808080" stop-opacity="0.1"/>
</linearGradient>
<linearGradient id="paint7_linear_291_80" x1="20860.1" y1="28428.1" x2="20860.1" y2="26860.9" gradientUnits="userSpaceOnUse">
<stop stop-color="#808080" stop-opacity="0.25"/>
<stop offset="0.54" stop-color="#808080" stop-opacity="0.12"/>
<stop offset="1" stop-color="#808080" stop-opacity="0.1"/>
</linearGradient>
<linearGradient id="paint8_linear_291_80" x1="34533.9" y1="26257.8" x2="34533.9" y2="24941.6" gradientUnits="userSpaceOnUse">
<stop stop-color="#808080" stop-opacity="0.25"/>
<stop offset="0.54" stop-color="#808080" stop-opacity="0.12"/>
<stop offset="1" stop-color="#808080" stop-opacity="0.1"/>
</linearGradient>
<linearGradient id="paint9_linear_291_80" x1="26326" y1="184048" x2="26326" y2="112001" gradientUnits="userSpaceOnUse">
<stop stop-color="#808080" stop-opacity="0.25"/>
<stop offset="0.54" stop-color="#808080" stop-opacity="0.12"/>
<stop offset="1" stop-color="#808080" stop-opacity="0.1"/>
</linearGradient>
<linearGradient id="paint10_linear_291_80" x1="26326" y1="184048" x2="26326" y2="112001" gradientUnits="userSpaceOnUse">
<stop stop-color="#808080" stop-opacity="0.25"/>
<stop offset="0.54" stop-color="#808080" stop-opacity="0.12"/>
<stop offset="1" stop-color="#808080" stop-opacity="0.1"/>
</linearGradient>
<linearGradient id="paint11_linear_291_80" x1="30186.7" y1="177061" x2="30186.7" y2="111352" gradientUnits="userSpaceOnUse">
<stop stop-color="#808080" stop-opacity="0.25"/>
<stop offset="0.54" stop-color="#808080" stop-opacity="0.12"/>
<stop offset="1" stop-color="#808080" stop-opacity="0.1"/>
</linearGradient>
<linearGradient id="paint12_linear_291_80" x1="26115.6" y1="14833.6" x2="26115.6" y2="11465.8" gradientUnits="userSpaceOnUse">
<stop stop-color="#808080" stop-opacity="0.25"/>
<stop offset="0.54" stop-color="#808080" stop-opacity="0.12"/>
<stop offset="1" stop-color="#808080" stop-opacity="0.1"/>
</linearGradient>
<linearGradient id="paint13_linear_291_80" x1="33911.5" y1="18214.1" x2="33911.5" y2="16695.9" gradientUnits="userSpaceOnUse">
<stop stop-color="#808080" stop-opacity="0.25"/>
<stop offset="0.54" stop-color="#808080" stop-opacity="0.12"/>
<stop offset="1" stop-color="#808080" stop-opacity="0.1"/>
</linearGradient>
<linearGradient id="paint14_linear_291_80" x1="42317.6" y1="102002" x2="42317.6" y2="51578.4" gradientUnits="userSpaceOnUse">
<stop stop-color="#808080" stop-opacity="0.25"/>
<stop offset="0.54" stop-color="#808080" stop-opacity="0.12"/>
<stop offset="1" stop-color="#808080" stop-opacity="0.1"/>
</linearGradient>
<linearGradient id="paint15_linear_291_80" x1="18898.6" y1="39906.2" x2="18898.6" y2="29060.5" gradientUnits="userSpaceOnUse">
<stop stop-color="#808080" stop-opacity="0.25"/>
<stop offset="0.54" stop-color="#808080" stop-opacity="0.12"/>
<stop offset="1" stop-color="#808080" stop-opacity="0.1"/>
</linearGradient>
<linearGradient id="paint16_linear_291_80" x1="14590.9" y1="8590.19" x2="14590.9" y2="7311.15" gradientUnits="userSpaceOnUse">
<stop stop-color="#808080" stop-opacity="0.25"/>
<stop offset="0.54" stop-color="#808080" stop-opacity="0.12"/>
<stop offset="1" stop-color="#808080" stop-opacity="0.1"/>
</linearGradient>
<linearGradient id="paint17_linear_291_80" x1="24252" y1="14913.7" x2="24252" y2="9690.72" gradientUnits="userSpaceOnUse">
<stop stop-color="#808080" stop-opacity="0.25"/>
<stop offset="0.54" stop-color="#808080" stop-opacity="0.12"/>
<stop offset="1" stop-color="#808080" stop-opacity="0.1"/>
</linearGradient>
<linearGradient id="paint18_linear_291_80" x1="33064.6" y1="18085.6" x2="33064.6" y2="11498.9" gradientUnits="userSpaceOnUse">
<stop stop-color="#808080" stop-opacity="0.25"/>
<stop offset="0.54" stop-color="#808080" stop-opacity="0.12"/>
<stop offset="1" stop-color="#808080" stop-opacity="0.1"/>
</linearGradient>
<linearGradient id="paint19_linear_291_80" x1="33012.2" y1="18041.1" x2="33012.2" y2="11454.3" gradientUnits="userSpaceOnUse">
<stop stop-color="#808080" stop-opacity="0.25"/>
<stop offset="0.54" stop-color="#808080" stop-opacity="0.12"/>
<stop offset="1" stop-color="#808080" stop-opacity="0.1"/>
</linearGradient>
<linearGradient id="paint20_linear_291_80" x1="35648.3" y1="98402.8" x2="35648.3" y2="51484.8" gradientUnits="userSpaceOnUse">
<stop stop-color="#808080" stop-opacity="0.25"/>
<stop offset="0.54" stop-color="#808080" stop-opacity="0.12"/>
<stop offset="1" stop-color="#808080" stop-opacity="0.1"/>
</linearGradient>
<linearGradient id="paint21_linear_291_80" x1="29748.3" y1="11477.7" x2="29748.3" y2="10703" gradientUnits="userSpaceOnUse">
<stop stop-color="#808080" stop-opacity="0.25"/>
<stop offset="0.54" stop-color="#808080" stop-opacity="0.12"/>
<stop offset="1" stop-color="#808080" stop-opacity="0.1"/>
</linearGradient>
<linearGradient id="paint22_linear_291_80" x1="8188.38" y1="5848.18" x2="8188.38" y2="5649.52" gradientUnits="userSpaceOnUse">
<stop stop-color="#808080" stop-opacity="0.25"/>
<stop offset="0.54" stop-color="#808080" stop-opacity="0.12"/>
<stop offset="1" stop-color="#808080" stop-opacity="0.1"/>
</linearGradient>
<linearGradient id="paint23_linear_291_80" x1="31024.6" y1="42582.5" x2="31024.6" y2="30486.2" gradientUnits="userSpaceOnUse">
<stop stop-color="#808080" stop-opacity="0.25"/>
<stop offset="0.54" stop-color="#808080" stop-opacity="0.12"/>
<stop offset="1" stop-color="#808080" stop-opacity="0.1"/>
</linearGradient>
<linearGradient id="paint24_linear_291_80" x1="20693.5" y1="4785.73" x2="20693.5" y2="4653.44" gradientUnits="userSpaceOnUse">
<stop stop-color="#808080" stop-opacity="0.25"/>
<stop offset="0.54" stop-color="#808080" stop-opacity="0.12"/>
<stop offset="1" stop-color="#808080" stop-opacity="0.1"/>
</linearGradient>
<clipPath id="clip0_291_80">
<rect width="808" height="889" fill="white"/>
</clipPath>
</defs>
</svg>
