<svg width="28" height="29" viewBox="0 0 28 29" fill="none" xmlns="http://www.w3.org/2000/svg">
<path fill-rule="evenodd" clip-rule="evenodd" d="M4.93729 21.6821C5.13179 21.629 5.42347 21.2916 5.74233 21.0246C9.83424 17.599 16.4575 17.4374 20.7236 20.3496C21.1782 20.6599 22.1084 21.3312 22.3823 21.7494C22.1985 22.4531 19.7031 24.1604 18.85 24.5986C14.9309 26.6115 9.94471 26.1295 6.56216 23.3184C6.06379 22.9043 5.22474 22.2375 4.93729 21.6821ZM2.10657 14.011C2.10657 13.1829 2.24918 12.1428 2.40945 11.4271C3.41789 6.92395 6.66772 3.60141 11.0587 2.50355C11.4605 2.4031 11.8269 2.35267 12.2897 2.2814C15.7016 1.75602 19.4053 3.12701 21.8392 5.61655C23.4396 7.25346 24.4061 9.0387 24.9505 11.3186C25.3398 12.9488 25.3351 14.081 25.1365 15.7496C24.9476 17.3371 24.3947 18.5886 23.6989 19.9326C23.5415 19.8248 23.4458 19.7118 23.2661 19.5675L21.9085 18.5328C19.9044 17.1587 17.1069 16.1643 14.6802 16.1643C11.8124 16.1643 10.2126 16.1439 7.50553 17.3764C5.91218 18.1019 5.34805 18.5802 4.11931 19.5675C3.93964 19.7118 3.84399 19.8248 3.68651 19.9326C2.69198 18.0114 2.10657 16.2597 2.10657 14.011ZM0 13.4727C0 16.4368 0.243054 17.4043 1.27855 19.9715L1.84611 21.0736C2.03524 21.4107 2.26138 21.7778 2.4913 22.0964C3.53193 23.5382 4.37281 24.3969 5.7828 25.4609L6.78271 26.1211C8.60802 27.1986 11.0074 28.0074 13.1661 28.0074C16.0591 28.0074 18.1208 27.5705 20.6016 26.1199C22.5509 24.9802 24.4239 23.0657 25.5389 21.0731C25.9316 20.3715 26.3355 19.5533 26.5878 18.7808C27.4527 16.1329 27.7062 13.2618 26.9776 10.525C26.6259 9.20356 26.1849 8.09911 25.5393 6.94844C25.3502 6.61134 25.1241 6.24422 24.8941 5.92569C23.7205 4.29963 22.3255 2.91193 20.6021 1.90167C20.424 1.7973 20.2753 1.73132 20.091 1.61658C19.6872 1.36524 18.7915 0.998095 18.3572 0.831804C15.929 -0.0979032 12.8093 -0.272778 10.2824 0.431451C9.3854 0.681421 8.69335 0.968568 7.86155 1.32148C5.31293 2.40285 2.33642 5.44538 1.27851 8.05053C0.578702 9.77385 0 11.4721 0 13.4727Z" fill="#011640"/>
<path fill-rule="evenodd" clip-rule="evenodd" d="M10.5324 9.7044C10.5324 6.92447 13.8999 5.36923 15.9166 7.43069C18.2701 9.83636 15.7971 14.0315 12.4013 12.6389C11.3324 12.2005 10.5324 10.9104 10.5324 9.7044ZM8.42578 9.43524C8.42578 11.2073 8.87552 12.4172 9.95561 13.5239C11.9917 15.61 15.3685 15.629 17.4284 13.5234C19.4805 11.4257 19.4805 7.98306 17.4284 5.88539C15.3762 3.78772 12.0082 3.78772 9.95606 5.88539C9.22759 6.63 8.42578 7.9806 8.42578 9.43524Z" fill="#011640"/>
</svg>
