<svg width="30" height="27" viewBox="0 0 30 27" fill="none" xmlns="http://www.w3.org/2000/svg">
<path fill-rule="evenodd" clip-rule="evenodd" d="M26.3138 2.79608L23.1268 17.6317C22.6867 19.6678 22.2351 20.6519 20.7664 21.3172C21.161 22.502 21.9212 23.0778 21.2611 24.7659C19.8559 28.3595 13.908 27.0405 15.2981 22.1375L9.37478 22.1411C9.96363 24.6822 8.9845 26.734 6.50269 26.801C5.32692 26.8328 4.392 26.2014 3.84432 25.5084C2.95895 24.3882 3.20679 23.6011 3.3974 22.1647C2.27988 21.5335 2.3992 20.479 3.46228 20.2824L17.3879 20.2626C19.6684 20.2625 20.9805 19.5435 21.2385 17.3799C17.7235 18.1081 17.4356 17.8643 13.6514 17.8678C9.64984 17.8715 5.30919 18.6266 2.7007 16.4879C1.89955 15.8311 1.62896 15.0073 1.31144 13.6167C0.983191 12.1791 -0.281548 7.78495 0.0572014 6.61401C1.16799 5.76179 7.62039 5.77384 9.64293 5.63057C12.8247 5.40511 20.4103 5.07806 23.4042 4.71761C24.0973 4.63416 23.9592 4.73594 24.1397 4.05066C24.7567 1.70785 24.0147 1.59169 26.3198 0.827578C27.2162 0.530434 30.2241 -0.963236 29.9867 0.982802C29.8716 1.92656 27.2533 2.52299 26.3138 2.79608Z" fill="#011640"/>
<path fill-rule="evenodd" clip-rule="evenodd" d="M22.7584 10.37L17.282 10.5595L17.5706 6.99291L23.5469 6.59933L22.7584 10.37Z" fill="#FAFAFA"/>
<path fill-rule="evenodd" clip-rule="evenodd" d="M8.55664 10.8662L2.76757 11.0989C2.36191 10.3511 2.14253 9.05027 1.98582 8.07022L8.37778 7.58813L8.55664 10.8662Z" fill="#FAFAFA"/>
<path fill-rule="evenodd" clip-rule="evenodd" d="M10.175 10.7459L10.0041 7.56273L15.9355 7.10129C15.77 10.9584 15.8711 10.6282 14.6427 10.6645C13.4915 10.6984 11.1836 10.9208 10.175 10.7459Z" fill="#FAFAFA"/>
<path fill-rule="evenodd" clip-rule="evenodd" d="M15.235 15.7657C14.5675 16.2204 10.9255 16.0106 10.4152 15.9432L10.273 12.4429L15.5215 12.2237L15.235 15.7657Z" fill="#FAFAFA"/>
<path fill-rule="evenodd" clip-rule="evenodd" d="M16.8157 16.0112L17.1347 12.2225L22.3359 11.9776C21.9441 15.8781 20.6723 15.9941 16.8157 16.0112Z" fill="#FAFAFA"/>
<path fill-rule="evenodd" clip-rule="evenodd" d="M8.83203 15.9962C5.78721 16.076 3.13414 16.007 3.10232 12.6893L8.45152 12.5031L8.70972 13.2407C8.74173 13.422 8.74813 13.8964 8.75674 14.1199C8.78082 14.7456 8.81845 15.37 8.83203 15.9962Z" fill="#FAFAFA"/>
<path fill-rule="evenodd" clip-rule="evenodd" d="M6.87062 22.2503C8.46946 22.8154 7.78293 25.3672 5.97617 24.8334C4.3392 24.3498 5.00795 21.5919 6.87062 22.2503Z" fill="#FAFAFA"/>
<path fill-rule="evenodd" clip-rule="evenodd" d="M18.7205 22.2543C20.3123 22.85 19.6168 25.4159 17.7477 24.8067C16.1514 24.2865 16.986 21.6053 18.7205 22.2543Z" fill="#FAFAFA"/>
</svg>
