<svg width="23" height="24" viewBox="0 0 23 24" fill="none" xmlns="http://www.w3.org/2000/svg">
<path fill-rule="evenodd" clip-rule="evenodd" d="M12.2819 1.60121C17.0843 1.01711 20.8512 4.51496 21.3944 8.64356C22.0327 13.4957 18.4937 17.1869 14.4314 17.7954C9.55992 18.5251 5.79417 14.8857 5.20786 10.8152C4.50805 5.95665 8.13862 2.1051 12.2819 1.60121ZM6.93926 17.0453C7.41851 17.2718 7.9071 17.7047 8.43356 18.0145C12.4446 20.3757 17.1706 19.5014 20.3526 16.2274C28.3116 8.03801 16.7225 -5.8093 6.75633 2.63313C5.4004 3.78173 3.89445 6.21553 3.69858 8.876C3.45907 12.129 4.51715 13.989 5.94793 15.8957C5.68276 16.416 2.03966 19.9411 1.1412 20.8288C0.701107 21.2637 -0.375142 21.971 0.133744 22.7163C0.877795 23.5707 1.59124 22.4069 2.07221 21.9235L6.93926 17.0453Z" fill="#011640"/>
</svg>
