<svg width="868" height="603" viewBox="0 0 868 603" fill="none" xmlns="http://www.w3.org/2000/svg">
<g clip-path="url(#clip0_291_5)">
<path d="M96.2515 596.181C109.157 585.27 116.995 568.033 114.94 551.254C112.884 534.474 100.152 519.048 83.6357 515.485C67.1199 511.922 48.293 521.785 43.2766 537.928C40.5158 506.805 37.3345 474.378 20.7972 447.874C5.82316 423.875 -20.1122 406.703 -48.2204 403.63C-76.3285 400.558 -105.923 412.161 -123.453 434.36C-140.983 456.558 -145.275 488.83 -132.997 514.316C-123.953 533.091 -107.29 547.063 -89.831 558.43C-33.4156 594.852 34.2474 609.663 100.708 600.138L96.2515 596.181Z" fill="#F2F2F2"/>
<path d="M-95.6568 412.804C-72.4641 431.706 -51.1872 452.847 -32.134 475.92C-2.31572 511.905 21.8135 552.252 39.4132 595.553C40.7016 598.712 35.575 600.087 34.301 596.963C5.50492 526.589 -40.4654 464.562 -99.4055 416.555C-102.052 414.399 -98.2817 410.666 -95.6568 412.804Z" fill="white"/>
<path d="M144.441 601.68H567.338V167.52C567.338 75.1489 492.233 0 399.917 0H311.862C219.546 0 144.441 75.1489 144.441 167.52V601.68Z" fill="#F2F2F2"/>
<path d="M232.497 601.68H567.338V167.52C567.431 132.125 556.229 97.6255 535.365 69.0433C534.596 67.9944 533.829 66.959 533.038 65.935C522.946 52.6911 510.937 41.0275 497.406 31.329C496.641 30.7726 495.874 30.2258 495.095 29.6789C483.773 21.839 471.525 15.4301 458.631 10.5979C457.865 10.3075 457.085 10.0165 456.306 9.73747C444.644 5.57333 432.555 2.72091 420.263 1.23288C419.501 1.12872 418.719 1.04721 417.936 0.965701C405.957 -0.315878 393.876 -0.315878 381.897 0.965701C381.117 1.04721 380.334 1.12871 379.563 1.234C367.274 2.72212 355.188 5.57419 343.53 9.73752C342.75 10.0166 341.97 10.3075 341.202 10.5985C328.467 15.3697 316.363 21.683 305.162 29.3976C304.383 29.9326 303.604 30.4794 302.837 31.0262C295.253 36.4433 288.128 42.4784 281.537 49.0696C276.252 54.3566 271.327 59.9921 266.795 65.9385C266.006 66.9591 265.239 67.9944 264.471 69.0416C243.606 97.6242 232.405 132.125 232.497 167.52V601.68Z" fill="#CCCCCC"/>
<path d="M259.724 407.496C249.486 407.496 241.186 399.192 241.186 388.947C241.186 378.703 249.486 370.398 259.724 370.398C269.962 370.398 278.262 378.703 278.262 388.947C278.262 399.192 269.962 407.496 259.724 407.496Z" fill="#6085FF"/>
<path d="M179.085 588.676H193.29L200.048 533.855L179.083 533.856L179.085 588.676Z" fill="#FFB8B8"/>
<path d="M203.436 584.615H176.042V601.873H220.685C220.685 599.607 220.238 597.363 219.372 595.269C218.505 593.175 217.234 591.272 215.633 589.67C214.031 588.067 212.13 586.796 210.037 585.929C207.944 585.061 205.701 584.615 203.436 584.615Z" fill="#2F2E41"/>
<path d="M108.409 588.676H122.614L129.372 533.855L108.407 533.856L108.409 588.676Z" fill="#FFB8B8"/>
<path d="M132.761 584.615H105.366V601.873H150.009C150.009 599.607 149.563 597.363 148.696 595.269C147.829 593.175 146.559 591.272 144.957 589.67C143.355 588.067 141.454 586.796 139.361 585.929C137.268 585.061 135.026 584.615 132.761 584.615Z" fill="#2F2E41"/>
<path d="M250.342 392.622C251.364 391.115 252.043 389.403 252.332 387.605C252.621 385.808 252.513 383.969 252.015 382.218C251.516 380.467 250.64 378.846 249.449 377.47C248.257 376.094 246.778 374.997 245.116 374.255L196.83 241.089L173.07 254.063L228.202 381.321C227.142 384.197 227.172 387.362 228.288 390.217C229.403 393.072 231.527 395.418 234.256 396.811C236.985 398.204 240.13 398.547 243.095 397.775C246.059 397.003 248.638 395.169 250.342 392.622Z" fill="#FFB8B8"/>
<path d="M115.665 417.644C117.244 416.739 118.605 415.498 119.652 414.009C120.699 412.52 121.408 410.82 121.727 409.027C122.047 407.235 121.97 405.394 121.502 403.635C121.033 401.875 120.185 400.24 119.017 398.844L133.976 257.978L106.936 259.214L100.719 397.775C98.5057 399.894 97.1459 402.752 96.8976 405.807C96.6493 408.862 97.5296 411.903 99.3719 414.352C101.214 416.801 103.89 418.489 106.893 419.096C109.896 419.703 113.017 419.186 115.665 417.644Z" fill="#FFB8B8"/>
<path d="M158.801 216.423C143.085 216.423 130.344 203.675 130.344 187.95C130.344 172.224 143.085 159.476 158.801 159.476C174.517 159.476 187.258 172.224 187.258 187.95C187.258 203.675 174.517 216.423 158.801 216.423Z" fill="#FFB8B8"/>
<path d="M115.847 385.607H201.64L201.536 384.939C201.382 383.94 186.246 284.73 197.41 252.273C198.53 249.083 198.431 245.592 197.133 242.47C195.835 239.349 193.429 236.819 190.378 235.366H190.377C174.421 227.847 143.792 218.589 117.94 241.057C114.136 244.418 111.166 248.618 109.263 253.325C107.361 258.033 106.58 263.118 106.98 268.18L115.847 385.607Z" fill="#011640"/>
<path d="M185.162 299.391L223.786 291.551L205.681 248.622C204.598 244.464 201.91 240.906 198.209 238.728C194.507 236.55 190.093 235.93 185.935 237.004C181.777 238.078 178.214 240.759 176.028 244.457C173.843 248.156 173.213 252.571 174.276 256.734L185.162 299.391Z" fill="#011640"/>
<path d="M135.693 313.95L138.015 260.689C139.776 250.677 134.048 241.213 125.238 239.666C116.427 238.124 107.822 245.068 106.054 255.154L97.3257 304.92L135.693 313.95Z" fill="#011640"/>
<path d="M118.701 379.231C104.897 431.836 103.391 498.72 107.115 571.676L125.653 569.357L159.253 430.24L177.791 571.676L198.646 570.516C204.876 493.968 210.943 428.252 200.963 385.027L118.701 379.231Z" fill="#6085FF"/>
<path d="M140.051 209.955C145.36 215.613 155.219 212.576 155.911 204.846C155.965 204.246 155.961 203.642 155.899 203.042C155.542 199.618 153.565 196.51 154.038 192.894C154.146 191.994 154.481 191.137 155.012 190.403C159.242 184.735 169.173 192.938 173.165 187.807C175.613 184.661 172.736 179.707 174.614 176.19C177.094 171.549 184.438 173.838 189.044 171.296C194.168 168.468 193.861 160.602 190.488 155.817C186.374 149.981 179.162 146.867 172.039 146.419C164.916 145.97 157.843 147.896 151.193 150.489C143.637 153.436 136.145 157.507 131.496 164.155C125.841 172.239 125.297 183.107 128.125 192.56C129.845 198.31 135.716 205.334 140.051 209.955Z" fill="#2F2E41"/>
<path d="M324.607 475.895H475.228C477.211 475.906 479.118 475.129 480.53 473.735C481.942 472.34 482.743 470.443 482.759 468.458V132.063C482.743 130.078 481.942 128.18 480.53 126.786C479.118 125.392 477.211 124.615 475.228 124.625H324.607C322.623 124.615 320.716 125.392 319.305 126.786C317.893 128.18 317.091 130.078 317.076 132.063V468.458C317.091 470.443 317.893 472.34 319.305 473.735C320.716 475.129 322.623 475.906 324.607 475.895Z" fill="white"/>
<path d="M317.076 233.472H482.759V235.791H317.076V233.472Z" fill="#CCCCCC"/>
<path d="M316.497 365.761H482.18V368.08H316.497V365.761Z" fill="#CCCCCC"/>
<path d="M428.304 124.625H430.621V477.055H428.304V124.625Z" fill="#CCCCCC"/>
<path d="M370.372 124.625H372.689V477.055H370.372V124.625Z" fill="#CCCCCC"/>
</g>
<defs>
<clipPath id="clip0_291_5">
<rect width="1008" height="603" fill="white" transform="matrix(-1 0 0 1 868 0)"/>
</clipPath>
</defs>
</svg>
