<svg width="32" height="32" viewBox="0 0 32 32" fill="none" xmlns="http://www.w3.org/2000/svg">
<path d="M26.1777 10.6624C26.195 10.8957 26.195 11.1277 26.195 11.3597C26.195 18.4597 20.791 26.6411 10.915 26.6411C7.87232 26.6411 5.04566 25.7597 2.66699 24.2291C3.09899 24.2784 3.51499 24.2957 3.96433 24.2957C6.38165 24.3016 8.73052 23.4933 10.6323 22.0011C9.51155 21.9808 8.42509 21.611 7.52464 20.9434C6.62419 20.2758 5.9547 19.3436 5.60966 18.2771C5.94166 18.3264 6.27499 18.3597 6.62433 18.3597C7.10566 18.3597 7.58966 18.2931 8.03899 18.1771C6.82267 17.9315 5.72896 17.2722 4.94382 16.3113C4.15868 15.3504 3.73058 14.1473 3.73233 12.9064V12.8397C4.44833 13.2384 5.27899 13.4877 6.15899 13.5211C5.42178 13.0312 4.81729 12.3664 4.39945 11.5861C3.9816 10.8058 3.76341 9.93421 3.76433 9.04907C3.76433 8.05173 4.02966 7.13707 4.49499 6.33973C5.84451 7.99976 7.52766 9.35781 9.43544 10.3259C11.3432 11.2941 13.4331 11.8507 15.5697 11.9597C15.487 11.5597 15.4363 11.1451 15.4363 10.7291C15.436 10.0237 15.5747 9.32514 15.8444 8.67339C16.1142 8.02163 16.5098 7.42943 17.0086 6.93065C17.5074 6.43187 18.0996 6.03628 18.7513 5.7665C19.4031 5.49673 20.1016 5.35805 20.807 5.3584C22.3537 5.3584 23.7497 6.0064 24.731 7.0544C25.9334 6.82189 27.0864 6.38296 28.139 5.75707C27.7382 6.99815 26.8987 8.05054 25.7777 8.71707C26.844 8.59544 27.8862 8.315 28.8697 7.88507C28.1352 8.95586 27.225 9.89486 26.1777 10.6624Z" fill="white" fill-opacity="0.8"/>
</svg>
