<svg width="24" height="24" viewBox="0 0 24 24" fill="none" xmlns="http://www.w3.org/2000/svg">
<path d="M17.7073 12.2932C17.6145 12.2003 17.5043 12.1265 17.383 12.0762C17.2617 12.0259 17.1317 12 17.0003 12C16.869 12 16.739 12.0259 16.6176 12.0762C16.4963 12.1265 16.3861 12.2003 16.2933 12.2932L14.6993 13.8872C13.9603 13.6672 12.5813 13.1672 11.7073 12.2932C10.8333 11.4192 10.3333 10.0402 10.1133 9.3012L11.7073 7.7072C11.8003 7.61441 11.874 7.50421 11.9243 7.38289C11.9746 7.26158 12.0005 7.13153 12.0005 7.0002C12.0005 6.86887 11.9746 6.73882 11.9243 6.61751C11.874 6.49619 11.8003 6.38599 11.7073 6.2932L7.70733 2.2932C7.61455 2.20026 7.50434 2.12652 7.38303 2.07621C7.26171 2.0259 7.13167 2 7.00033 2C6.869 2 6.73896 2.0259 6.61764 2.07621C6.49633 2.12652 6.38612 2.20026 6.29333 2.2932L3.58133 5.0052C3.20133 5.3852 2.98733 5.9072 2.99533 6.4402C3.01833 7.8642 3.39533 12.8102 7.29333 16.7082C11.1913 20.6062 16.1373 20.9822 17.5623 21.0062H17.5903C18.1183 21.0062 18.6173 20.7982 18.9953 20.4202L21.7073 17.7082C21.8003 17.6154 21.874 17.5052 21.9243 17.3839C21.9746 17.2626 22.0005 17.1325 22.0005 17.0012C22.0005 16.8699 21.9746 16.7398 21.9243 16.6185C21.874 16.4972 21.8003 16.387 21.7073 16.2942L17.7073 12.2932ZM17.5803 19.0052C16.3323 18.9842 12.0623 18.6492 8.70733 15.2932C5.34133 11.9272 5.01533 7.6422 4.99533 6.4192L7.00033 4.4142L9.58633 7.0002L8.29333 8.2932C8.1758 8.41065 8.08938 8.55554 8.04189 8.71477C7.9944 8.874 7.98733 9.04256 8.02133 9.2052C8.04533 9.3202 8.63233 12.0472 10.2923 13.7072C11.9523 15.3672 14.6793 15.9542 14.7943 15.9782C14.9569 16.0132 15.1256 16.0067 15.285 15.9593C15.4444 15.9119 15.5893 15.8252 15.7063 15.7072L17.0003 14.4142L19.5863 17.0002L17.5803 19.0052Z" fill="white" fill-opacity="0.8"/>
</svg>
